<?xml version="1.0" encoding="UTF-8"?>
<svg width="600" height="200" version="1.1" viewBox="0 0 158.75 52.917" xmlns="http://www.w3.org/2000/svg" xmlns:cc="http://creativecommons.org/ns#" xmlns:dc="http://purl.org/dc/elements/1.1/" xmlns:osb="http://www.openswatchbook.org/uri/2009/osb" xmlns:rdf="http://www.w3.org/1999/02/22-rdf-syntax-ns#" xmlns:xlink="http://www.w3.org/1999/xlink">
 <defs>
  <linearGradient id="linearGradient3069" x1="3.1538" x2="56.93" y1=".41207" y2="13.224" gradientTransform="translate(-3.7451 2.7596)" gradientUnits="userSpaceOnUse">
   <stop stop-color="#caf" offset="0"/>
   <stop stop-color="#caf" stop-opacity="0" offset="1"/>
  </linearGradient>
  <linearGradient id="linearGradient3107" x1="144.26" x2="58.175" y1="53.023" y2=".39422" gradientUnits="userSpaceOnUse">
   <stop stop-color="#40a" offset="0"/>
   <stop stop-color="#7f2aff" offset="1"/>
  </linearGradient>
 </defs>
 <metadata>
  <rdf:RDF>
   <cc:Work rdf:about="">
    <dc:format>image/svg+xml</dc:format>
    <dc:type rdf:resource="http://purl.org/dc/dcmitype/StillImage"/>
    <dc:title/>
   </cc:Work>
  </rdf:RDF>
 </metadata>
 <g>
  <rect x=".19711" y="-.19711" width="158.48" height="53.22" fill="url(#linearGradient3107)" stroke="#95f" stroke-width=".052917" style="paint-order:stroke markers fill"/>
  <path d="m0.19711 53.023c40.014-53.615 19.514 5.5192 66.033-31.932 46.519-37.451 34.854 68.374 67.018 4.3365 21.88-43.562 25.625-5.322 25.625-5.322l-0.19712 32.918z" fill="#95f" opacity=".73529" style="mix-blend-mode:screen"/>
  <path d="m159.37 0.024996c-32.721 99.542-1.9711-10.841-48.49 26.61-46.519 37.451-69.044-3.8192-68.792 8.4759 0.65984 32.226-41.394-2.1682-41.394-2.1682s2.9037-49.241 27.004-33.706c37.047 23.88 131.67 0.78845 131.67 0.78845z" fill="#95f" opacity=".41503" style="mix-blend-mode:screen"/>
  <path d="m-6.3076-0.19711s53.418-9.8556 58.148 4.5336c4.7307 14.389-1.3462 20.224-7.4903 24.245-5.36 3.5077-12.812 4.5336-18.923 3.3509-6.1105-1.1827-8.3885-6.3667-11.63-10.447-2.556-3.2177-6.8989-6.7018-12.812-6.1105-5.9134 0.59134-8.4759 3.548-8.4759 3.548z" fill="url(#linearGradient3069)" opacity=".7549" style="mix-blend-mode:screen"/>
 </g>
</svg>
